PathFileType	4	(X/Y/Z)	pose_F01_0-93.trc
DataRate	CameraRate	NumFrames	NumMarkers	Units	OrigDataRate	OrigDataStartFrame	OrigNumFrames
30	30	14	21	m	30	18	93
Frame#	Time	CHip			RHip			RKnee			RAnkle			RBigToe			RSmallToe			RHeel			LHip			LKnee			LAnkle			LBigToe			LSmallToe			LHeel			Neck			Nose			RShoulder			RElbow			RWrist			LShoulder			LElbow			LWrist			
		X1	Y1	Z1	X2	Y2	Z2	X3	Y3	Z3	X4	Y4	Z4	X5	Y5	Z5	X6	Y6	Z6	X7	Y7	Z7	X8	Y8	Z8	X9	Y9	Z9	X10	Y10	Z10	X11	Y11	Z11	X12	Y12	Z12	X13	Y13	Z13	X14	Y14	Z14	X15	Y15	Z15	X16	Y16	Z16	X17	Y17	Z17	X18	Y18	Z18	X19	Y19	Z19	X20	Y20	Z20	X21	Y21	Z21	
18	0.6	-0.27562377345941796	1.8393377320922397	-0.5680580697434752	-0.2912372685145993	1.836578440814856	-0.5121024928503083																-0.26126477006896853	1.842849441895451	-0.6218400847676688																-0.27518787658655136	1.9951031344451988	-0.6066210228562456	-0.2616748378242904	2.053749444738721	-0.585813480482156	-0.29730154038578205	1.9894511185981998	-0.527784347989768	-0.30394625839783607	1.910214653902775	-0.48049419842907515	-0.3029980067168373	1.8370874226107488	-0.4379433194461855	-0.24866728677386382	1.9999771045433543	-0.6872143996696036	-1.3603447551821617	1.856874652658782	0.5121806986313509	-0.20439978233152206	1.9460344101235227	-0.5539061839432025
19	0.6333333333333333	-0.27533017555842526	1.8462427925298335	-0.5689433397742254	-0.2909569209081516	1.8430928094144179	-0.5130881651174942																-0.2617398631217807	1.8488820726739497	-0.6255768989195623																-0.27319340569841444	1.995269744106508	-0.6086918731571707	-0.2615924947307504	2.053681812393696	-0.5858382610956006	-0.2953902292428818	1.9899094485098452	-0.5299414282037169	-0.3038791557143024	1.9098237662969937	-0.48050545480806234	-0.302879214697929	1.8351759586872298	-0.43778322019080734	-0.24771538229934087	1.998604880036855	-0.6838323728979275	-1.3868008285618922	1.8530491701858935	0.561324908312762	-0.20023298099128806	1.9326300675661228	-0.5362777069221012
20	0.6666666666666666	-0.27550087565057146	1.8518978007630902	-0.5695409257154297	-0.2908581909871681	1.8485305765832503	-0.5137609004258984																-0.2620100514586415	1.8556304570953375	-0.6262409648986682																-0.272020228763735	1.9941712516795098	-0.6052976178309211	-0.2606779709573573	2.053497361500868	-0.5829329941602648	-0.2941621932779889	1.987616251115249	-0.5260985056634415	-0.3045768264467806	1.9088355585840184	-0.48323444372355995	-0.30644290502348975	1.8366988303820706	-0.4339681582709203	-0.2446570795692527	1.9983007478488766	-0.682965232065578	-1.4053330128280432	1.8549171719188708	0.5929807981290366	-0.19850962046223403	1.916684719207679	-0.5273243169504624
21	0.7	-0.27435758285827694	1.843974171909058	-0.5737972311756	-0.29091433360242924	1.8479063045384092	-0.5136726187052518																-0.25981150683405213	1.847290440434672	-0.6276810627793631																-0.26999213896658936	1.9943232870201195	-0.6073524602699237	-0.2585758318282929	2.0556654179415026	-0.5853708932456587	-0.29417336369923247	1.9888434434782825	-0.5264960909798355	-0.30383858139317194	1.9087435518020623	-0.48028386468187056	-0.3067861234552212	1.8346890364867616	-0.4335066977135298	-0.24264541484413893	1.9973616620897534	-0.6850817663675448	-0.2165216452235416	1.9383842062201613	-0.6412328745953058	-0.1961845992513086	1.9114708900786275	-0.5374260613340768
22	0.7333333333333333	-0.276317990800493	1.8437595089901602	-0.5717490957927857	-0.29097047621769034	1.8472820324935681	-0.5135843369846051																-0.2600315722511684	1.8460119815051035	-0.6274738845781935																-0.26903531323713775	1.9943008081285662	-0.6042688013882691	-0.2576599512093232	2.0554381164021573	-0.582395335379395	-0.29414160335565465	1.9889762193576714	-0.5263760265176537	-0.3035700176072662	1.909638228125258	-0.4800788256620583	-0.3095166365900724	1.8374678912687017	-0.43493117388518815	-0.24247626781229345	1.9984617527499895	-0.6849669007973513	-0.21509582940998645	1.9382571436128182	-0.6462508801296176	-0.20218000444288117	1.9141384456783106	-0.5219399707374172
23	0.7666666666666667	-0.27350627351911216	1.8442795597888941	-0.5708788376773629	-0.2910266188329515	1.846657760448727	-0.5134960552639586																-0.2599521774993909	1.8481132405020448	-0.6277636086189297																-0.2680359300346092	1.9940492410629356	-0.601325501985525	-0.25761290732493164	2.0553692276683875	-0.5823858179546434	-0.2910606288734492	1.9901846237128817	-0.5253140372019146	-0.30359372397697254	1.9091462268783095	-0.48001318410225585	-0.3107620171509889	1.8358809855523512	-0.42928510008970117	-0.2424468964157359	1.9984128321927483	-0.6850139732298139	-1.372186756848583	1.8491809854155	0.5452781865176068	-0.21489389556610344	1.9252957904481183	-0.5389620790492119
24	0.8	-0.27435905045843484	1.8435718996712271	-0.5738312560129696	-0.29108276144821266	1.8460334884038858	-0.513407773543312																-0.25991120600813566	1.8444816593887075	-0.62740470173382																-0.26908350256611135	1.9953698803304338	-0.604645655090682	-0.25759980672812127	2.0553268432993863	-0.5823147090403511	-0.29399338937912656	1.9900614977883817	-0.5263965790913205	-0.304777827785171	1.9118739027525227	-0.48376204318622784	-0.3119340630657604	1.8372375356801187	-0.4326554067245213	-0.24258924626636888	1.9995587915309239	-0.6853199191477173	-1.346003320563842	1.851158445017581	0.5015097412713568	-0.20735630391723267	1.9441156829132922	-0.5272198529887423
25	0.8333333333333334	-0.27331487886396705	1.8460620272682176	-0.5710565625144893	-0.29113890406347376	1.8454092163590448	-0.5133194918226653																-0.2597960840845376	1.8468253705786595	-0.6276371526121824																-0.2699648050475813	1.9964438270713498	-0.6077335759093618	-0.2575883183161912	2.0552241390247086	-0.5823298807413906	-0.29425270009254356	1.990058107233386	-0.5268145617406739	-0.3056827369447873	1.911404558182348	-0.47855455672460123	-0.31075530924807543	1.8385594027002223	-0.42961162941822606	-0.24244515354173546	2.000747365879303	-0.6855397952614202	-1.3280816319592805	1.8547597029951255	0.467623202840497	-0.19048417799721037	1.9669153857825847	-0.5395781942463401
26	0.8666666666666667	-0.27353915871044304	1.8481736329319127	-0.5712366706899441	-0.2911950466787349	1.8447849443142037	-0.5132312101020188																-0.2590867252537558	1.848898631108042	-0.6248228420804162																-0.2721008100551027	1.9950956333332532	-0.6056428940779829	-0.2576895276136135	2.0542754830457763	-0.582496217638151	-0.2943260453101906	1.990926922398428	-0.5271432226690593	-0.30594097951602206	1.910418432773139	-0.47862277363024053	-0.31061654380923026	1.837483398770659	-0.4293420374896086	-0.24558145559022498	1.9994953004671225	-0.6862901767868596	-1.3377083518347088	1.8519209527684226	0.4869369973349273	-1.6558497477196987	1.883077404872362	1.0317554983129757
27	0.9	-0.27342061702009773	1.8480238492615142	-0.571167193192275	-0.28906474043095287	1.8442407037126987	-0.5152209355939799																-0.25981452231400154	1.8510926671706716	-0.6280776387082498																-0.275195993265898	1.9948017385039407	-0.6065947258634492	-0.25858926873269783	2.053147426018272	-0.5849694815233772	-0.2963488596050275	1.9906039569239602	-0.5251382662236118	-0.30576685788550223	1.9116455812347326	-0.4786402553080381	-0.31066573914210754	1.8381366215003805	-0.42946344214926085	-0.24774261279429996	2.0006635808578195	-0.6841399916118619	-1.340246924306788	1.8538284044022004	0.4901460228081961	-0.19840545884833122	1.9816787977603516	-0.5690081762119573
28	0.9333333333333333	-0.2736174773155605	1.846113054990308	-0.5709315641153089	-0.29039005512241445	1.8413379017055815	-0.5096359927639085																-0.25989760498065156	1.847935710854892	-0.6277621457869945																-0.2762232090190116	1.9948500661703765	-0.6095816532678133	-0.258540686830943	2.054297291070542	-0.5849464638428027	-0.29737241693534716	1.9906939289044963	-0.5282119836924993	-0.30460103367333335	1.913186777393499	-0.47566715439098106	-0.309743931746086	1.839569280114802	-0.4264362621729909	-0.2516685302394051	2.0010057065259663	-0.6879103584380867	-1.3453070914398682	1.857596378137267	0.49655388307236314	-0.20510568277948768	1.9874576413523943	-0.5839000784478512
29	0.9666666666666667	-0.27365944839087264	1.844916437438605	-0.5708049984924874	-0.2879796175917273	1.8399696203126195	-0.5116525846301794																-0.258667342298329	1.8478153706444516	-0.6247655279413151																-0.27621236747791655	1.993540728720535	-0.6093622720659053	-0.2594903544669915	2.0545720649162846	-0.5879588043688169	-0.29726938114520857	1.988595058570029	-0.5274997275934675	-0.30478856219861705	1.911414623425707	-0.4753360550618338	-0.30869514193284175	1.8370103629380732	-0.4228108134790942	-0.2525524801136251	2.000897582610724	-0.6910836227546436	-1.342533346465367	1.8617321545249272	0.48924403139644795	-0.20734472852624877	1.993018347837979	-0.5833096728087105
30	1.0	-0.2737014194661847	1.8437198198869018	-0.570678432869666	-0.2912645494610215	1.840200634430074	-0.5126016301173753																-0.2600891127023471	1.846799388388142	-0.6276112097561407																-0.27625695756245633	1.9935236555013824	-0.6091897816662839	-0.2597018632572988	2.054711617578498	-0.5885620233420803	-0.29635450943943836	1.9860268863506936	-0.5239519857047252	-0.3036664718113859	1.9095151825338326	-0.47184618395093153	-0.30836845045732847	1.8362420825264505	-0.4226864639357055	-0.2526614047364638	2.001257255468761	-0.6909308432577371	-1.3389942147176264	1.8666540709832988	0.4803754381248879	-0.20922589988439416	1.9945556948809715	-0.5901139400541504
31	1.0333333333333334	-0.2743516973454063	1.8399042323237051	-0.5735389815479687	-0.2910215670462062	1.8394817313496383	-0.5117177865191376																-0.2627172043664183	1.8417583022026822	-0.6283790889376183																-0.27822699996185274	1.9935278348711523	-0.607085726924569	-0.2625867791148373	2.054782357993681	-0.5895017583833456	-0.2953833110802406	1.9854578476944256	-0.5207776287539759	-0.3034647016010243	1.906643470217987	-0.4712739532818146	-0.3073126350509802	1.833287846364055	-0.4191520459403486	-0.25582261495032477	1.999932799439671	-0.6918214227229258	-0.20096341966835166	1.968142488176247	-0.7125453755539268	-0.21788346579284373	2.000814768994802	-0.593127012231096
